<svg xmlns="http://www.w3.org/2000/svg" viewBox="0 0 128 128"><defs><linearGradient id="s" x1="0" y1="0" x2="1" y2="1"><stop stop-color="#aebbd0"/><stop offset="1" stop-color="#52627b"/></linearGradient></defs><rect width="128" height="128" rx="28" fill="#1b2330"/><path fill="url(#s)" d="m75 16 5 13c4 1 8 3 11 6l13-5 9 16-10 9c1 4 1 8 0 12l10 9-9 16-13-5c-3 3-7 5-11 6l-5 13H53l-5-13c-4-1-8-3-11-6l-13 5-9-16 10-9c-1-4-1-8 0-12l-10-9 9-16 13 5c3-3 7-5 11-6l5-13h22Zm-11 31a17 17 0 1 0 0 34 17 17 0 0 0 0-34Z"/></svg>